<svg width="19" height="18" viewBox="0 0 19 18" fill="none" xmlns="http://www.w3.org/2000/svg">
<path d="M17.8451 9.17493C17.8451 8.52743 17.7915 8.05493 17.6755 7.56494H10.1309V10.4874H14.5594C14.4701 11.2137 13.988 12.3074 12.9166 13.0424L12.9015 13.1402L15.287 14.9513L15.4523 14.9674C16.9701 13.5937 17.8451 11.5724 17.8451 9.17493Z" fill="#4285F4"/>
<path d="M10.1297 16.8751C12.2993 16.8751 14.1207 16.175 15.4511 14.9675L12.9154 13.0425C12.2369 13.5062 11.3261 13.83 10.1297 13.83C8.00476 13.83 6.20121 12.4563 5.55829 10.5575L5.46405 10.5653L2.98361 12.4466L2.95117 12.535C4.27258 15.1075 6.98686 16.8751 10.1297 16.8751Z" fill="#34A853"/>
<path d="M5.55995 10.5575C5.39031 10.0675 5.29213 9.54245 5.29213 8.99997C5.29213 8.45744 5.39031 7.93246 5.55103 7.44247L5.54653 7.33811L3.035 5.42664L2.95282 5.46494C2.40821 6.53245 2.0957 7.73123 2.0957 8.99997C2.0957 10.2687 2.40821 11.4674 2.95282 12.5349L5.55995 10.5575Z" fill="#FBBC05"/>
<path d="M10.1298 4.16998C11.6387 4.16998 12.6565 4.80873 13.2369 5.34251L15.5048 3.1725C14.1119 1.90375 12.2994 1.125 10.1298 1.125C6.98689 1.125 4.27259 2.89249 2.95117 5.46497L5.54938 7.44249C6.20123 5.54375 8.00479 4.16998 10.1298 4.16998Z" fill="#EB4335"/>
</svg>
