<svg width="190" height="40" viewBox="0 0 190 40" fill="none" xmlns="http://www.w3.org/2000/svg">
<path d="M56.241 10.3525V14.2002H62.6077V29.7511H67.01V14.2002H73.3398V10.3525H56.241Z" fill="#A022F5"/>
<path d="M89.1052 14.2002V10.3525H75.26V29.7511H89.1052V25.8985H79.6647V21.9547H87.7274V18.1095H79.6647V14.2002H89.1052Z" fill="#A022F5"/>
<path d="M99.3345 17.6141C96.2239 16.5665 95.7556 16.2362 95.7556 15.3562C95.7556 14.3703 96.988 13.9241 98.9747 13.9241C101.371 13.9241 103.187 14.5847 103.187 16.9535H107.592C107.592 13.0984 104.92 10.0715 98.9648 10.0715C93.9562 10.0715 91.341 11.8881 91.341 15.1911C91.341 18.9895 94.6735 20.0913 98.7726 21.4667C101.607 22.4304 103.976 23.0639 103.976 24.4664C103.976 25.5115 103.039 26.1721 100.205 26.1721C96.3767 26.1721 94.8978 25.2379 94.8978 22.2653H90.4807C90.4807 26.6355 92.5611 29.3863 97.9739 29.9286C98.6296 29.9927 99.3321 30.0272 100.086 30.0272C100.76 30.0289 101.434 29.996 102.105 29.9286C106.594 29.4553 108.398 27.338 108.398 24.4122C108.398 20.3649 102.921 18.8243 99.3345 17.6141Z" fill="#A022F5"/>
<path d="M118.913 17.6141C115.803 16.5665 115.334 16.2362 115.334 15.3562C115.334 14.3703 116.567 13.9241 118.556 13.9241C120.949 13.9241 122.766 14.5847 122.766 16.9535H127.171C127.171 13.0984 124.499 10.0715 118.556 10.0715C113.545 10.0715 110.932 11.8881 110.932 15.1911C110.932 18.9895 114.262 20.0913 118.361 21.4667C121.198 22.4304 123.564 23.0639 123.564 24.4664C123.564 25.5115 122.628 26.1721 119.793 26.1721C115.941 26.1721 114.454 25.2379 114.454 22.2653H110.05C110.05 26.6355 112.13 29.3863 117.543 29.9286C118.198 29.9927 118.901 30.0272 119.655 30.0272C120.329 30.0289 121.001 29.996 121.671 29.9286C126.162 29.4578 127.967 27.338 127.967 24.4122C127.967 20.3649 122.49 18.8243 118.913 17.6141Z" fill="#A022F5"/>
<path d="M142.556 14.2002V10.3525H129.344V14.2002H133.747V25.8985H129.344V29.7511H142.556V25.8985H138.151V14.2002H142.556Z" fill="#A022F5"/>
<path d="M158.159 10.3525V20.5867C158.159 24.0523 157.829 26.1721 153.784 26.1721C149.739 26.1721 149.436 24.0523 149.436 20.5867V10.3525H145.031V22.5389C145.031 26.8475 147.402 29.4159 151.975 29.9335C153.177 30.065 154.39 30.065 155.593 29.9335C160.17 29.4208 162.564 26.8524 162.564 22.5389V10.3525H158.159Z" fill="#A022F5"/>
<path d="M180.48 10.3525L177.646 28.6542H176.546L173.709 10.3525H165.04V29.7511H169.445V14.2002L168.619 11.4469H169.719L172.829 29.7511H181.363L184.471 11.4469H185.573L184.747 14.2002V29.7511H189.152V10.3525H180.48Z" fill="#A022F5"/>
<path d="M42.1956 31.0747C39.1885 27.9048 35.8338 24.4195 32.8587 21.2743H46.2035V13.2339H0.083252V21.3902H13.3936C10.1572 24.7917 7.17716 27.9245 4.12565 31.124L4.77884 31.4271L11.5844 34.5945C14.1462 31.8979 16.7088 29.2038 19.2723 26.5122V38.1612L23.1693 40L27.0712 38.245V26.7882L34.5816 34.7005L42.1956 31.0747Z" fill="#A022F5"/>
<path d="M0 8.00838V0H46.1252V8.00838H0Z" fill="#A022F5"/>
</svg>
